<svg width="90" height="90" viewBox="0 0 90 90" fill="none" xmlns="http://www.w3.org/2000/svg">
<g clip-path="url(#clip0_9148_297)">
<path d="M87.5527 44.8604C87.8902 44.8604 88.2004 44.9435 88.5098 45.0557C88.8191 45.1678 89.1002 45.3646 89.3252 45.5889C89.5501 45.8131 89.7469 46.094 89.8594 46.4023C89.9718 46.7106 90.0283 47.0192 90.0283 47.3555C90.0283 55.3739 87.7502 62.8879 83.8691 69.2803C85.3316 71.0747 86.1465 73.3461 86.1465 75.7012C86.1464 81.3646 81.5063 85.9901 75.8252 85.9902C73.4346 85.9902 71.1562 85.1774 69.3281 83.6914C62.9437 87.5045 55.4904 89.7197 47.5029 89.7197C47.1655 89.7197 46.8562 89.6632 46.5469 89.5791C46.2376 89.467 45.9564 89.2711 45.7314 89.0469C45.5064 88.7945 45.3098 88.5418 45.1973 88.2334C45.0567 87.925 45 87.6167 45 87.2803C45 86.9439 45.0848 86.6355 45.1973 86.3271C45.3098 86.0188 45.5065 85.7379 45.7314 85.5137C45.9564 85.2895 46.2376 85.0935 46.5469 84.9814C46.8562 84.8693 47.1655 84.8135 47.5029 84.8135C54.3936 84.8135 60.8344 82.9626 66.375 79.7383C65.8125 78.4767 65.503 77.1029 65.5029 75.7012C65.5029 70.0376 70.1439 65.4111 75.8252 65.4111C77.2314 65.4392 78.6096 65.7479 79.9033 66.3086C83.1939 60.7292 85.0781 54.2806 85.0781 47.3555C85.0781 47.0191 85.1346 46.7107 85.2471 46.4023C85.3596 46.0939 85.5563 45.8132 85.7812 45.5889C86.0344 45.3646 86.2873 45.1678 86.5967 45.0557C86.9059 44.9155 87.2154 44.8604 87.5527 44.8604ZM75.8252 70.3174C72.844 70.3174 70.4532 72.6729 70.4531 75.6729C70.4531 76.8785 70.8471 78.0565 71.6064 79.0098C71.6342 79.0374 71.6343 79.0377 71.6621 79.0654C72.6746 80.3551 74.1658 81.0557 75.8252 81.0557C78.8063 81.0556 81.1972 78.701 81.1973 75.7012C81.1973 74.0751 80.4657 72.5328 79.2002 71.5234C78.244 70.7384 77.0626 70.3174 75.8252 70.3174ZM61.8184 15.7012C63.1402 15.6451 64.2373 16.6822 64.2373 18C64.2373 18.6168 64.0408 19.234 63.5908 19.6826C61.7627 21.5331 58.6121 24.6729 58.0215 25.2617L63.6191 30.8408C63.9307 30.5302 67.4439 27.0279 69.2715 25.2061C69.6933 24.8136 70.256 24.5887 70.8184 24.5605C72.1401 24.5045 73.2371 25.5418 73.2373 26.8594C73.2373 27.4761 73.0407 28.0934 72.5908 28.542C70.6502 30.4766 67.275 33.8413 66.9375 34.1777L72.2246 39.3643C73.3496 40.4857 73.3496 42.2799 72.2246 43.4014L65.25 50.3555C65.3396 50.4447 69.0486 54.1134 70.9316 56.0186C71.3253 56.4391 71.55 56.9999 71.5781 57.5605C71.6344 58.8783 70.5934 59.9717 69.2715 59.9717C68.6529 59.9716 68.0339 59.7757 67.584 59.3271C65.5872 57.3647 62.0445 53.8321 61.9033 53.6914L54.5625 61.0098C54.5967 61.0436 58.3404 64.7471 60.2441 66.6729C60.6378 67.0934 60.8625 67.6542 60.8906 68.2148C60.9469 69.5326 59.9059 70.626 58.584 70.626C57.9654 70.6259 57.3464 70.43 56.8965 69.9814C54.8715 67.9627 51.2158 64.3174 51.2158 64.3174L44.2402 71.2705C43.1152 72.392 41.3154 72.392 40.1904 71.2705L34.959 66.0557C34.6777 66.3641 31.1629 69.8973 29.3066 71.7197C28.8849 72.1122 28.3221 72.3361 27.7598 72.3643C26.4379 72.4203 25.3408 71.3832 25.3408 70.0654C25.3408 69.4486 25.5373 68.8314 25.9873 68.3828C27.9275 66.4486 31.33 63.0577 31.6406 62.748L26.0439 57.168C25.7627 57.4483 22.2186 60.9813 20.3623 62.8037C19.9404 63.1962 19.3779 63.4202 18.8154 63.4482C17.4936 63.5042 16.3965 62.4671 16.3965 61.1494C16.3965 60.5326 16.594 59.9154 17.0439 59.4668C18.9846 57.5322 22.416 54.1124 22.6973 53.832L17.5498 48.7568C16.425 47.6354 16.425 45.8412 17.5498 44.7197L24.5254 37.7666C24.1598 37.4021 20.6721 33.9533 18.8721 32.1309C18.4783 31.7103 18.2528 31.1496 18.2246 30.5889C18.1965 29.916 18.4503 29.2995 18.8721 28.8789C19.2939 28.4583 19.8846 28.1777 20.5596 28.1777C21.1782 28.1778 21.7971 28.3737 22.2471 28.8223C24.1877 30.7288 27.5348 34.0652 27.9004 34.4297L35.2129 27.1406C34.7629 26.692 31.3596 23.2993 29.5596 21.5049C29.1659 21.0844 28.9403 20.5516 28.9121 19.9629C28.8559 18.6451 29.8969 17.5518 31.2188 17.5518C31.8375 17.5518 32.4563 17.7477 32.9062 18.1963C34.7906 20.0748 38.1094 23.3832 38.5312 23.8037L45.5059 16.8223C46.6309 15.7008 48.4316 15.7008 49.5566 16.8223L54.6748 21.9248C55.2657 21.3357 58.5278 18.084 60.2715 16.3457C60.6933 15.9533 61.256 15.7293 61.8184 15.7012ZM49.0215 27.7568C48.3747 27.7289 47.728 28.0098 47.25 28.4863C47.0252 28.7105 46.8283 28.9904 46.7158 29.2705L44.4375 34.7383C43.9875 35.7757 44.325 36.9812 45.2812 37.542C46.2375 38.1027 47.4752 37.9063 48.2627 37.0371L49.416 41.5518L36.8438 45.3643C35.6064 45.7287 34.8471 47.0184 35.1562 48.252L38.0254 59.4111C38.3348 60.6446 39.5997 61.3454 40.8652 60.9531C42.1309 60.5606 42.8902 59.2708 42.5527 58.0371L40.2188 49.0938L52.791 45.2803C54.0282 44.9156 54.7877 43.598 54.4785 42.3926L52.7627 35.6631C53.8314 35.9714 55.0125 35.467 55.5469 34.4297C56.0811 33.3923 55.8279 32.1591 54.9561 31.5703L50.3154 28.1777C49.9498 27.8974 49.4996 27.7568 49.0215 27.7568ZM42.4971 0C42.8345 2.14389e-05 43.144 0.0565289 43.4814 0.140625C43.7907 0.25279 44.072 0.448637 44.2969 0.672852C44.5219 0.925188 44.7186 1.17792 44.8311 1.48633C44.9716 1.79467 45.0283 2.10308 45.0283 2.43945C45.0283 2.77582 44.9435 3.08423 44.8311 3.39258C44.7185 3.70095 44.5218 3.98178 44.2969 4.20605C44.072 4.43022 43.7906 4.62616 43.4814 4.73828C43.1722 4.85039 42.8627 4.90621 42.5254 4.90625C35.6348 4.90625 29.1939 6.75718 23.6533 9.98145C24.2157 11.243 24.5254 12.6168 24.5254 14.0186C24.5254 19.6821 19.8844 24.3086 14.2031 24.3086C12.7969 24.2806 11.4187 23.9719 10.125 23.4111C6.83441 28.9905 4.95024 35.4391 4.9502 42.3643C4.97831 42.7006 4.89369 43.0091 4.78125 43.3174C4.66876 43.6258 4.47203 43.9066 4.24707 44.1309C3.99408 44.355 3.74079 44.5509 3.43164 44.6631C3.12227 44.8033 2.81211 44.8594 2.47461 44.8594C2.13726 44.8593 1.82781 44.7752 1.51855 44.6631C1.20931 44.5509 0.928045 44.3551 0.703125 44.1309C0.478125 43.9066 0.281445 43.6258 0.168945 43.3174C0.0565107 43.0091 0 42.7006 0 42.3643C4.32784e-05 34.3458 2.24976 26.8599 6.13086 20.4395C4.6684 18.6451 3.85352 16.3737 3.85352 14.0186C3.85359 8.35513 8.49369 3.72862 14.1748 3.72852C16.5654 3.72852 18.8438 4.54234 20.6719 6.02832C27.0563 2.21524 34.5096 0 42.4971 0ZM14.1748 8.66309C11.1937 8.66319 8.80281 11.0187 8.80273 14.0186C8.80273 15.6447 9.53425 17.1869 10.7998 18.1963C11.756 18.9813 12.9374 19.4023 14.1748 19.4023C17.156 19.4023 19.5468 17.0468 19.5469 14.0469C19.5469 12.8413 19.1529 11.6632 18.3936 10.71C18.3658 10.6823 18.3657 10.682 18.3379 10.6543C17.3254 9.36458 15.8342 8.66309 14.1748 8.66309Z" fill="black"/>
</g>
<defs>
<clipPath id="clip0_9148_297">
<rect width="90" height="90" fill="white"/>
</clipPath>
</defs>
</svg>
